#!OML:ASF I:\Actors\actors\Patient Classification 1\Patient 1\Session 1\Subject1.ASF
:FULLY-SPECIFIED
:DEGREES
976
root 0.710686 17.4905 9.50459 8.6236 -0.122219 -8.88582
lowerback -3.20668 0.650336 7.03535
upperback -8.25 1.06632 2.35841
thorax -6.78233 0.17161 -1.48076
lowerneck -14.2927 -2.32401 0.0536089
upperneck 32.8143 -4.44955 2.73585
head 13.5268 -1.57892 0.375142
rclavicle 3.52843e-015 -3.57812e-015
rhumerus -30.7415 -0.606309 -91.1369
rradius 93.9499
rwrist 12.054
rhand -21.2286 -47.732
rfingers 7.12502
rthumb 5.15363 -77.6493
lclavicle 3.52843e-015 -3.57812e-015
lhumerus -44.0459 -16.0184 105.251
lradius 101.303
lwrist 12.243
lhand -39.9908 -24.148
lfingers 7.12502
lthumb -12.9589 5.42958
rfemur -1.75582 23.6265 26.1943
rtibia 2.28307
rfoot -13.5828 -26.7701
rtoes 4.97078
lfemur 8.12429 -47.2307 -14.869
ltibia -4.69503
lfoot -26.4492 54.5212
ltoes 15.3278
977
root 0.710556 17.4906 9.50397 8.61668 -0.150059 -8.86423
lowerback -3.17607 0.66771 7.01104
upperback -8.24257 1.09166 2.35471
thorax -6.7897 0.185514 -1.47217
lowerneck -14.2853 -2.32916 0.0903433
upperneck 32.7794 -4.44949 2.6886
head 13.5075 -1.58137 0.350168
rclavicle 1.39149e-014 -3.51849e-014
rhumerus -30.7063 -0.614966 -91.1166
rradius 94.0185
rwrist 12.1212
rhand -21.1303 -47.602
rfingers 7.12502
rthumb 5.24852 -77.517
lclavicle 1.39149e-014 -3.51849e-014
lhumerus -44.0406 -16.0273 105.26
lradius 101.294
lwrist 12.2787
lhand -39.9004 -24.16
lfingers 7.12502
lthumb -12.8717 5.42309
rfemur -1.7602 23.6142 26.1679
rtibia 2.29937
rfoot -13.5665 -26.7489
rtoes 4.78241
lfemur 8.16625 -47.2631 -14.936
ltibia -4.69962
lfoot -26.554 54.5712
ltoes 15.2661
978
root 0.710717 17.4914 9.50305 8.58462 -0.154143 -8.82682
lowerback -3.09723 0.654798 6.97051
upperback -8.23969 1.08132 2.35358
thorax -6.83261 0.181681 -1.45145
lowerneck -14.3053 -2.30963 0.214424
upperneck 32.7877 -4.42148 2.58254
head 13.5084 -1.56762 0.290874
rclavicle 8.15017e-015 -1.43125e-014
rhumerus -30.694 -0.563174 -91.124
rradius 94.1185
rwrist 12.2416
rhand -21.0539 -47.5473
rfingers 7.12502
rthumb 5.32235 -77.4604
lclavicle 8.15017e-015 -1.43125e-014
lhumerus -44.0434 -15.9787 105.25
lradius 101.286
lwrist 12.3255
lhand -39.861 -24.0822
lfingers 7.12502
lthumb -12.8338 5.50332
rfemur -1.72263 23.6245 26.1366
rtibia 2.2939
rfoot -13.5693 -26.7699
rtoes 4.59283
lfemur 8.22474 -47.2836 -15.0263
ltibia -4.70939
lfoot -26.3318 54.6406
ltoes 14.9507
979
root 0.711541 17.4937 9.50362 8.51772 -0.0946682 -8.82918
lowerback -3.01888 0.625588 6.98378
upperback -8.21816 1.04946 2.36772
thorax -6.85707 0.165262 -1.44397
lowerneck -14.3213 -2.29163 0.300907
upperneck 32.776 -4.39463 2.50882
head 13.5018 -1.55505 0.250755
rclavicle 4.89507e-015 1.72943e-014
rhumerus -30.6644 -0.49015 -91.1332
rradius 94.2568
rwrist 12.3679
rhand -20.9966 -47.6135
rfingers 7.12502
rthumb 5.37761 -77.5253
lclavicle 4.89507e-015 1.72943e-014
lhumerus -44.0579 -15.9116 105.262
lradius 101.302
lwrist 12.358
lhand -39.8493 -24.0107
lfingers 7.12502
lthumb -12.8225 5.57546
rfemur -1.61554 23.6417 26.1795
rtibia 2.25284
rfoot -13.5686 -26.8331
rtoes 4.71864
lfemur 8.31355 -47.3238 -15.0835
ltibia -4.72011
lfoot -26.0856 54.6586
ltoes 14.7531
980
root 0.713087 17.4973 9.50551 8.42906 -0.0342181 -8.82673
lowerback -2.95098 0.605439 6.99763
upperback -8.17826 1.02821 2.39194
thorax -6.85484 0.155594 -1.42652
lowerneck -14.2518 -2.27461 0.283726
upperneck 32.6405 -4.35795 2.51546
head 13.4279 -1.54349 0.263033
rclavicle -2.55935e-015 -6.05299e-014
rhumerus -30.6333 -0.387151 -91.1347
rradius 94.4643
rwrist 12.4726
rhand -21.1022 -47.8038
rfingers 7.12502
rthumb 5.27569 -77.7182
lclavicle -2.55935e-015 -6.05299e-014
lhumerus -44.0653 -15.8618 105.312
lradius 101.334
lwrist 12.3742
lhand -39.8411 -24.0366
lfingers 7.12502
lthumb -12.8146 5.5501
rfemur -1.47237 23.6461 26.2306
rtibia 2.21091
rfoot -13.6007 -26.9015
rtoes 4.91301
lfemur 8.38327 -47.2419 -15.1279
ltibia -4.70426
lfoot -25.7997 54.5434
ltoes 14.5458
981
root 0.715117 17.5015 9.50822 8.3116 0.0316328 -8.77033
lowerback -2.85198 0.574992 6.99047
upperback -8.14426 0.99466 2.38617
thorax -6.87727 0.139176 -1.42875
lowerneck -14.1029 -2.25794 0.227993
upperneck 32.442 -4.32673 2.58188
head 13.3127 -1.53325 0.305561
rclavicle -1.79155e-014 -2.78299e-015
rhumerus -30.6821 -0.203247 -91.2031
rradius 94.8222
rwrist 12.5397
rhand -21.2691 -48.0492
rfingers 7.12502
rthumb 5.1145 -77.9675
lclavicle -1.79155e-014 -2.78299e-015
lhumerus -44.0963 -15.834 105.332
lradius 101.369
lwrist 12.3686
lhand -39.8818 -24.0422
lfingers 7.12502
lthumb -12.8538 5.54203
rfemur -1.27738 23.6653 26.2358
rtibia 2.14739
rfoot -13.6632 -27.0038
rtoes 4.96234
lfemur 8.47748 -47.1059 -15.2542
ltibia -4.68188
lfoot -25.7039 54.3393
ltoes 14.5765
982
root 0.717746 17.5061 9.51217 8.14895 0.165974 -8.7296
lowerback -2.7314 0.524321 7.03758
upperback -8.09334 0.935036 2.36354
thorax -6.89573 0.106202 -1.47812
lowerneck -13.936 -2.23643 0.175451
upperneck 32.2086 -4.30196 2.69146
head 13.1809 -1.52044 0.363305
rclavicle 4.79568e-015 -1.55052e-014
rhumerus -30.7683 0.154503 -91.399
rradius 95.3405
rwrist 12.1931
rhand -21.5671 -47.6007
rfingers 7.12502
rthumb 4.82675 -77.5258
lclavicle 4.79568e-015 -1.55052e-014
lhumerus -44.1322 -15.8315 105.322
lradius 101.413
lwrist 12.3436
lhand -39.9441 -23.9597
lfingers 7.12502
lthumb -12.9139 5.62071
rfemur -0.99533 23.6815 26.2914
rtibia 2.02588
rfoot -13.701 -27.1783
rtoes 4.93694
lfemur 8.63425 -47.001 -15.4061
ltibia -4.6771
lfoot -25.6648 54.1078
ltoes 14.7618
983
root 0.680492 17.4536 9.48652 10.3064 -2.80534 -9.1708
lowerback -4.18173 1.62275 6.48572
upperback -8.64444 2.30134 2.56402
thorax -6.57666 0.826396 -0.964056
lowerneck -13.8145 -2.22 0.138837
upperneck 31.9522 -4.27876 2.77199
head 13.0487 -1.51 0.405704
rclavicle -1.39149e-015 -2.55438e-014
rhumerus -30.8335 0.780379 -91.7466
rradius 95.9389
rwrist 11.0538
rhand -22.4947 -45.7233
rfingers 7.12502
rthumb 3.93108 -75.6668
lclavicle -1.39149e-015 -2.55438e-014
lhumerus -44.1498 -15.8387 105.321
lradius 101.461
lwrist 12.3198
lhand -39.9633 -23.8792
lfingers 7.12502
lthumb -12.9324 5.70009
rfemur -4.82656 23.4831 25.3327
rtibia 3.70896
rfoot -12.7003 -24.0206
rtoes 2.22039
lfemur 7.65112 -48.4371 -14.4363
ltibia -5.0684
lfoot -33.0515 57.0005
ltoes 20.1192
984
root 0.6815 17.4539 9.48698 10.2923 -2.79341 -9.12561
lowerback -4.13964 1.61948 6.47973
upperback -8.6156 2.29881 2.55628
thorax -6.56919 0.82587 -0.969877
lowerneck -13.808 -2.22515 0.177082
upperneck 31.7412 -4.2532 2.6734
head 12.9537 -1.51116 0.364412
rclavicle -2.20154e-014 -5.79457e-014
rhumerus -30.8084 1.13342 -91.9049
rradius 96.9003
rwrist 12.0459
rhand -20.6151 -48.544
rfingers 7.12502
rthumb 5.74596 -78.4461
lclavicle -2.20154e-014 -5.79457e-014
lhumerus -44.1448 -15.8403 105.305
lradius 101.485
lwrist 12.3427
lhand -39.9505 -23.9413
lfingers 7.12502
lthumb -12.9201 5.63875
rfemur -4.80524 23.4559 25.2791
rtibia 3.6909
rfoot -12.7085 -24.0027
rtoes 2.26657
lfemur 7.62978 -48.3685 -14.4749
ltibia -5.05708
lfoot -32.686 57.0022
ltoes 19.656
985
root 0.682785 17.4552 9.4867 10.2795 -2.78122 -9.07241
lowerback -4.09014 1.62251 6.48626
upperback -8.56993 2.30418 2.54423
thorax -6.54668 0.828989 -0.987352
lowerneck -13.7821 -2.2344 0.261532
upperneck 31.4154 -4.21732 2.50325
head 12.8037 -1.51396 0.28957
rclavicle -6.57232e-015 8.54774e-015
rhumerus -30.8275 1.7818 -92.2124
rradius 97.8999
rwrist 12.5037
rhand -19.3476 -51.5916
rfingers 7.12502
rthumb 6.96964 -81.4569
lclavicle -6.57232e-015 8.54774e-015
lhumerus -44.0939 -15.881 105.283
lradius 101.48
lwrist 12.4406
lhand -39.926 -24.1587
lfingers 7.12502
lthumb -12.8965 5.42285
rfemur -4.78914 23.4355 25.2164
rtibia 3.67758
rfoot -12.7044 -24.0026
rtoes 2.23255
lfemur 7.56779 -48.2399 -14.4823
ltibia -5.0506
lfoot -32.2612 56.9451
ltoes 19.2328
